<svg width="335" height="335" viewBox="0 0 335 335" fill="none" xmlns="http://www.w3.org/2000/svg">
<rect x="2" y="2" width="331" height="331" rx="165.5" stroke="#BABABA" stroke-width="4"/>
<path d="M167.592 141.52C165.544 147.897 163.146 154.181 160.4 160.373C157.653 166.564 154.488 172.475 150.904 178.108C147.366 183.694 143.386 188.884 138.964 193.679C134.588 198.427 129.724 202.546 124.371 206.038C119.064 209.482 113.269 212.205 106.984 214.207C100.747 216.162 93.9738 217.14 86.6655 217.14C85.4087 217.14 84.2217 216.907 83.1045 216.441C81.9873 215.976 81.0098 215.347 80.1719 214.556C79.334 213.718 78.6823 212.764 78.2168 211.693C77.7513 210.576 77.5186 209.389 77.5186 208.132V141.52H95.6729V198.287C100.095 198.287 104.331 197.333 108.381 195.424C112.477 193.516 116.341 191.002 119.972 187.883C123.603 184.718 126.954 181.134 130.026 177.13C133.145 173.127 135.915 169.031 138.335 164.841C140.756 160.605 142.804 156.462 144.48 152.413C146.202 148.363 147.482 144.732 148.32 141.52H167.592ZM258.084 217H239.93V166.936C239.93 164.562 239.325 162.77 238.114 161.56C236.904 160.303 235.089 159.674 232.668 159.674H199.92V141.52H232.668C234.39 141.52 236.206 141.729 238.114 142.148C240.023 142.521 241.908 143.126 243.77 143.964C245.679 144.802 247.494 145.896 249.216 147.246C250.939 148.549 252.451 150.155 253.755 152.063C255.058 153.925 256.106 156.09 256.897 158.557C257.688 161.024 258.084 163.817 258.084 166.936V217ZM192.589 217H174.435V109.61H192.589V217Z" fill="#353535"/>
</svg>
