<svg width="349" height="349" viewBox="0 0 349 349" fill="none" xmlns="http://www.w3.org/2000/svg">
<path d="M174.549 141.351C171.899 149.601 168.798 157.731 165.245 165.741C161.692 173.75 157.597 181.398 152.959 188.685C148.383 195.912 143.234 202.626 137.513 208.829C131.852 214.972 125.559 220.301 118.633 224.818C111.768 229.274 104.271 232.797 96.1406 235.387C88.071 237.916 79.3088 239.181 69.854 239.181C68.228 239.181 66.6924 238.88 65.2471 238.277C63.8018 237.675 62.5371 236.862 61.4531 235.838C60.3691 234.754 59.526 233.52 58.9238 232.135C58.3216 230.689 58.0205 229.154 58.0205 227.528V141.351H81.5068V214.791C87.2279 214.791 92.708 213.556 97.9473 211.087C103.247 208.618 108.245 205.366 112.942 201.332C117.64 197.236 121.976 192.599 125.95 187.42C129.985 182.241 133.568 176.942 136.7 171.522C139.831 166.042 142.481 160.682 144.649 155.443C146.877 150.204 148.533 145.506 149.617 141.351H174.549ZM291.619 239H268.133V174.232C268.133 171.161 267.35 168.842 265.784 167.276C264.218 165.65 261.87 164.837 258.738 164.837H216.373V141.351H258.738C260.966 141.351 263.315 141.622 265.784 142.164C268.253 142.646 270.692 143.429 273.101 144.513C275.57 145.597 277.919 147.012 280.147 148.758C282.375 150.444 284.332 152.522 286.019 154.991C287.705 157.4 289.06 160.2 290.083 163.392C291.107 166.584 291.619 170.197 291.619 174.232V239ZM206.888 239H183.401V100.069H206.888V239Z" fill="#353535"/>
</svg>
